<svg width="1290" height="396" viewBox="0 0 1290 396" fill="none" xmlns="http://www.w3.org/2000/svg">
    <g clip-path="url(#clip0_28_424)">
        <path
            d="M129.14 324.958C116.035 324.902 109.427 324.789 95.9308 324.621C91.0586 350.618 92.9067 364.064 130.148 392.302C106.683 392.302 94.8668 392.302 71.178 392.302C-20.7768 315.209 21.7845 275.037 99.8509 198.672C176.965 123.204 219.079 82.0238 119.06 4.08998C153.221 4.5382 170.245 4.70628 204.014 5.04244C302.857 66.7844 317.586 107.292 261.528 206.124C231.511 259.07 158.093 334.538 226.527 392.022C200.374 392.134 187.214 392.134 160.837 392.19C127.348 363.56 126.172 350.45 129.196 324.902L129.14 324.958ZM227.927 135.642C201.158 186.851 165.429 231.336 125.836 273.076C135.86 273.637 140.788 273.861 150.532 274.309C182.621 231.728 207.486 184.778 227.927 135.642Z"
            fill="black" />
        <path
            d="M250.944 391.966C221.655 350.506 277.881 257.669 299.777 223.1C359.867 128.022 362.275 74.348 263.432 5.65874C289.865 5.88285 303.025 5.9949 329.234 6.16298C391.396 65.5518 388.036 102.866 373.308 182.312C397.724 108.301 405.733 67.2886 350.571 6.33106C376.78 6.49914 389.828 6.55517 415.869 6.72325C505.024 94.6299 407.525 114.744 421.133 211.222C481.951 266.465 375.66 328.319 406.741 391.126C379.132 391.294 365.299 391.406 337.523 391.574C332.594 339.749 384.228 309.102 367.987 255.988C370.732 310.671 316.074 338.012 317.474 391.686C290.929 391.854 277.601 391.91 250.888 392.022L250.944 391.966Z"
            fill="black" />
        <path
            d="M495.783 390.565C469.743 390.677 456.75 390.733 430.205 390.902C418.501 348.545 444.99 341.99 459.494 308.822C471.423 281.536 470.023 249.377 474.615 221.419C487.495 142.981 501.496 65.1036 440.566 6.77928C466.775 6.89134 479.823 6.83531 505.808 6.77928C557.777 63.927 533.697 141.805 530.281 215.761C528.936 243.942 532.185 273.917 521.88 301.37C509.504 334.258 473.607 348.769 495.783 390.621V390.565Z"
            fill="black" />
        <path
            d="M578.946 94.3497C569.314 95.0781 564.498 95.4143 554.809 96.0306C563.769 66.3922 579.058 49.2479 533.977 6.6112C582.866 6.44312 607.283 6.33107 656.06 6.05093C684.453 45.2139 668.325 60.9015 655.612 88.1307C645.98 88.9711 641.164 89.3633 631.588 90.1477C601.347 167.857 632.988 158.333 636.012 220.467C638.532 272.012 574.242 340.533 616.971 389.893C591.434 390.005 578.666 390.061 553.073 390.229C516.728 342.83 578.778 287.027 572.338 237.723C570.602 224.613 549.545 212.623 546.521 196.487C540.417 164.272 570.49 123.82 578.946 94.2937V94.3497Z"
            fill="black" />
        <path
            d="M791.92 282.097C777.36 320.812 789.512 373.141 758.263 396C753.895 396 751.655 396 747.287 396C693.637 390.677 642.788 348.993 671.069 291.565C699.574 217.329 637.3 175.757 668.773 101.017C686.973 71.4346 705.006 1.96095 747.287 0C751.487 0 753.559 0 757.759 0C806.817 0 822.273 46.5025 795.001 88.747C766.944 157.941 799.089 212.679 791.864 282.041L791.92 282.097ZM741.407 86.8981C745.943 79.5586 746.895 75.0764 742.023 75.4686C737.207 75.8608 733.567 80.0628 728.751 88.0747C693.637 166.737 743.143 215.649 722.87 293.414C720.014 301.482 720.35 306.076 724.606 305.796C728.862 305.516 732.279 300.586 735.023 292.462C752.607 215.088 707.022 164.944 741.351 86.8981H741.407Z"
            fill="black" />
        <path
            d="M859.179 5.09847C889.476 4.87436 904.652 4.81833 935.061 4.59422C961.046 62.5823 851.338 119.17 894.852 166.793C872.171 103.426 976.67 68.9694 958.19 4.42614C987.871 4.25806 1002.77 4.20203 1032.67 4.03395C1061.74 43.1969 1005.79 137.827 983.335 172.508C923.133 265.457 924.141 324.509 1020.3 390.229C998.063 390.061 987.031 389.949 964.91 389.837C848.874 296.608 935.565 268.034 925.485 153.626C920.277 263.888 839.13 298.121 945.701 389.725C936.349 389.669 931.645 389.613 922.349 389.557C809.841 299.297 913.724 254.587 860.691 155.475C900.004 258.285 796.737 298.289 902.636 389.445C881.075 389.333 870.323 389.277 848.874 389.165C787.216 330.056 802.057 254.027 814.881 174.525C821.377 134.073 869.763 37.146 859.235 4.98641L859.179 5.09847Z"
            fill="black" />
        <path
            d="M1133.64 320.756C1141.32 369.331 1184.32 396 1141.48 396C1137.12 396 1134.93 396 1130.51 396C1072.83 393.647 986.639 359.526 977.398 295.487C963.734 215.649 1040.96 146.007 1064.48 74.292C1084.42 33 1081.45 0 1130.56 0C1134.76 0 1136.84 0 1141.04 0C1193.12 2.63328 1270.51 20.8421 1289.61 76.8132C1286.14 181.08 1144.51 216.433 1133.7 320.756H1133.64ZM1183.54 67.3447C1184.04 60.5654 1180.35 56.5874 1172.34 56.5874C1164.28 56.5874 1162.54 60.0051 1161.53 67.1766C1140.36 152.002 1025.34 218.506 1043.54 311.455C1045.05 319.243 1049.14 323.837 1054.57 324.565C1060 325.294 1060.73 321.484 1059.1 313.864C1040.9 217.105 1166.85 157.212 1183.6 67.3447H1183.54Z"
            fill="black" />
    </g>
    <defs>
        <clipPath id="clip0_28_424">
            <rect width="1290" height="396" fill="black" />
        </clipPath>
    </defs>
</svg>